<svg width="32" height="32" viewBox="0 0 32 32" fill="none" xmlns="http://www.w3.org/2000/svg">
  <!-- Background circle -->
  <circle cx="16" cy="16" r="16" fill="#F59E0B"/>
  
  <!-- QR Code pattern (simplified) -->
  <rect x="6" y="6" width="4" height="4" fill="white"/>
  <rect x="12" y="6" width="2" height="2" fill="white"/>
  <rect x="16" y="6" width="2" height="2" fill="white"/>
  <rect x="20" y="6" width="4" height="4" fill="white"/>
  
  <rect x="6" y="12" width="2" height="2" fill="white"/>
  <rect x="10" y="12" width="2" height="2" fill="white"/>
  <rect x="14" y="12" width="2" height="2" fill="white"/>
  <rect x="18" y="12" width="2" height="2" fill="white"/>
  <rect x="22" y="12" width="2" height="2" fill="white"/>
  
  <rect x="6" y="16" width="2" height="2" fill="white"/>
  <rect x="10" y="16" width="2" height="2" fill="white"/>
  <rect x="14" y="16" width="2" height="2" fill="white"/>
  <rect x="18" y="16" width="2" height="2" fill="white"/>
  <rect x="22" y="16" width="2" height="2" fill="white"/>
  
  <rect x="6" y="20" width="4" height="4" fill="white"/>
  <rect x="12" y="20" width="2" height="2" fill="white"/>
  <rect x="16" y="20" width="2" height="2" fill="white"/>
  <rect x="20" y="20" width="4" height="4" fill="white"/>
  
  <!-- Fork and knife icons -->
  <path d="M8 2 L8 6 M7 4 L9 4" stroke="white" stroke-width="1" stroke-linecap="round"/>
  <path d="M24 2 L24 6 M23 4 L25 4" stroke="white" stroke-width="1" stroke-linecap="round"/>
</svg>
